<?xml version="1.0" encoding="UTF-8"?>
<svg viewBox="0 0 800 600" xmlns="http://www.w3.org/2000/svg">
  <!-- Background -->
  <rect width="800" height="600" fill="#f8f9fa" rx="10" ry="10"/>
  
  <!-- Define arrow marker -->
  <defs>
    <marker id="arrowhead" markerWidth="10" markerHeight="7" refX="10" refY="3.5" orient="auto">
      <polygon points="0 0, 10 3.5, 0 7" fill="#f39c12"/>
    </marker>
  </defs>
  
  <!-- Title -->
  <text x="400" y="40" font-family="Arial" font-size="24" text-anchor="middle" font-weight="bold" fill="#333333">Bottom-Up DP 방식 해결책 시각화</text>
  
  <!-- Input data -->
  <rect x="100" y="70" width="600" height="70" fill="#e8f4f8" rx="8" ry="8" stroke="#3498db" stroke-width="2"/>
  <text x="400" y="95" font-family="Arial" font-size="18" text-anchor="middle" font-weight="bold" fill="#2980b9">입력값: differences = [1, -3, 4], lower = 1, upper = 6</text>
  <text x="400" y="120" font-family="Arial" font-size="14" text-anchor="middle" fill="#444444">모든 가능한 시퀀스를 찾기 위한 Bottom-Up 동적 계획법 접근</text>
  
  <!-- DP Array Visualization -->
  <text x="175" y="160" font-family="Arial" font-size="16" text-anchor="middle" font-weight="bold" fill="#333333">DP 배열 - arr[i] 구성</text>
  
  <!-- arr[0] - All possible starting values -->
  <rect x="50" y="180" width="250" height="90" fill="#e8f6f3" rx="8" ry="8" stroke="#16a085" stroke-width="2"/>
  <text x="175" y="200" font-family="Arial" font-size="16" text-anchor="middle" font-weight="bold" fill="#16a085">arr[0]: 모든 가능한 시작값</text>
  <text x="175" y="220" font-family="Arial" font-size="14" text-anchor="middle" fill="#444444">lower부터 upper까지의 모든 값</text>
  
  <!-- arr[0] values -->
  <rect x="80" y="230" width="30" height="30" fill="#1abc9c" rx="4" ry="4" stroke="#16a085" stroke-width="1"/>
  <rect x="115" y="230" width="30" height="30" fill="#1abc9c" rx="4" ry="4" stroke="#16a085" stroke-width="1"/>
  <rect x="150" y="230" width="30" height="30" fill="#1abc9c" rx="4" ry="4" stroke="#16a085" stroke-width="1"/>
  <rect x="185" y="230" width="30" height="30" fill="#1abc9c" rx="4" ry="4" stroke="#16a085" stroke-width="1"/>
  <rect x="220" y="230" width="30" height="30" fill="#1abc9c" rx="4" ry="4" stroke="#16a085" stroke-width="1"/>
  <rect x="255" y="230" width="30" height="30" fill="#1abc9c" rx="4" ry="4" stroke="#16a085" stroke-width="1"/>
  
  <text x="95" y="250" font-family="Arial" font-size="14" text-anchor="middle" fill="white">1</text>
  <text x="130" y="250" font-family="Arial" font-size="14" text-anchor="middle" fill="white">2</text>
  <text x="165" y="250" font-family="Arial" font-size="14" text-anchor="middle" fill="white">3</text>
  <text x="200" y="250" font-family="Arial" font-size="14" text-anchor="middle" fill="white">4</text>
  <text x="235" y="250" font-family="Arial" font-size="14" text-anchor="middle" fill="white">5</text>
  <text x="270" y="250" font-family="Arial" font-size="14" text-anchor="middle" fill="white">6</text>
  
  <!-- arr[1] - After applying differences[0] = 1 -->
  <rect x="50" y="280" width="250" height="90" fill="#ebf5fb" rx="8" ry="8" stroke="#2980b9" stroke-width="2"/>
  <text x="175" y="300" font-family="Arial" font-size="16" text-anchor="middle" font-weight="bold" fill="#2980b9">arr[1]: differences[0] = 1 적용</text>
  <text x="175" y="320" font-family="Arial" font-size="14" text-anchor="middle" fill="#444444">arr[0]의 각 값 + 1</text>
  
  <!-- arr[1] values -->
  <rect x="80" y="330" width="30" height="30" fill="#3498db" rx="4" ry="4" stroke="#2980b9" stroke-width="1"/>
  <rect x="115" y="330" width="30" height="30" fill="#3498db" rx="4" ry="4" stroke="#2980b9" stroke-width="1"/>
  <rect x="150" y="330" width="30" height="30" fill="#3498db" rx="4" ry="4" stroke="#2980b9" stroke-width="1"/>
  <rect x="185" y="330" width="30" height="30" fill="#3498db" rx="4" ry="4" stroke="#2980b9" stroke-width="1"/>
  <rect x="220" y="330" width="30" height="30" fill="#3498db" rx="4" ry="4" stroke="#2980b9" stroke-width="1"/>
  <rect x="255" y="330" width="30" height="30" fill="#3498db" rx="4" ry="4" stroke="#2980b9" stroke-width="1" opacity="0.4"/>
  
  <text x="95" y="350" font-family="Arial" font-size="14" text-anchor="middle" fill="white">2</text>
  <text x="130" y="350" font-family="Arial" font-size="14" text-anchor="middle" fill="white">3</text>
  <text x="165" y="350" font-family="Arial" font-size="14" text-anchor="middle" fill="white">4</text>
  <text x="200" y="350" font-family="Arial" font-size="14" text-anchor="middle" fill="white">5</text>
  <text x="235" y="350" font-family="Arial" font-size="14" text-anchor="middle" fill="white">6</text>
  <text x="270" y="350" font-family="Arial" font-size="14" text-anchor="middle" fill="white">7</text>
  <line x1="255" y1="330" x2="285" y2="360" stroke="#d35400" stroke-width="2"/>
  <line x1="285" y1="330" x2="255" y2="360" stroke="#d35400" stroke-width="2"/>
  <text x="295" y="345" font-family="Arial" font-size="10" text-anchor="start" fill="#d35400">범위 밖</text>
  
  <!-- Arrows from arr[0] to arr[1] -->
  <path d="M95 260 L95 330" stroke="#f39c12" stroke-width="1.5" stroke-dasharray="4" marker-end="url(#arrowhead)"/>
  <path d="M130 260 L130 330" stroke="#f39c12" stroke-width="1.5" stroke-dasharray="4" marker-end="url(#arrowhead)"/>
  <path d="M165 260 L165 330" stroke="#f39c12" stroke-width="1.5" stroke-dasharray="4" marker-end="url(#arrowhead)"/>
  <path d="M200 260 L200 330" stroke="#f39c12" stroke-width="1.5" stroke-dasharray="4" marker-end="url(#arrowhead)"/>
  <path d="M235 260 L235 330" stroke="#f39c12" stroke-width="1.5" stroke-dasharray="4" marker-end="url(#arrowhead)"/>
  <path d="M270 260 L270 330" stroke="#f39c12" stroke-width="1.5" stroke-dasharray="4" marker-end="url(#arrowhead)"/>
  
  <!-- arr[2] - After applying differences[1] = -3 -->
  <rect x="50" y="380" width="250" height="90" fill="#fcf3cf" rx="8" ry="8" stroke="#d35400" stroke-width="2"/>
  <text x="175" y="400" font-family="Arial" font-size="16" text-anchor="middle" font-weight="bold" fill="#d35400">arr[2]: differences[1] = -3 적용</text>
  <text x="175" y="420" font-family="Arial" font-size="14" text-anchor="middle" fill="#444444">arr[1]의 각 값 - 3</text>
  
  <!-- arr[2] values -->
  <rect x="80" y="430" width="30" height="30" fill="#e67e22" rx="4" ry="4" stroke="#d35400" stroke-width="1" opacity="0.4"/>
  <rect x="115" y="430" width="30" height="30" fill="#e67e22" rx="4" ry="4" stroke="#d35400" stroke-width="1" opacity="0.4"/>
  <rect x="150" y="430" width="30" height="30" fill="#e67e22" rx="4" ry="4" stroke="#d35400" stroke-width="1"/>
  <rect x="185" y="430" width="30" height="30" fill="#e67e22" rx="4" ry="4" stroke="#d35400" stroke-width="1"/>
  <rect x="220" y="430" width="30" height="30" fill="#e67e22" rx="4" ry="4" stroke="#d35400" stroke-width="1"/>
  <rect x="255" y="430" width="30" height="30" fill="#e67e22" rx="4" ry="4" stroke="#d35400" stroke-width="1"/>
  
  <text x="95" y="450" font-family="Arial" font-size="14" text-anchor="middle" fill="white">-1</text>
  <text x="130" y="450" font-family="Arial" font-size="14" text-anchor="middle" fill="white">0</text>
  <text x="165" y="450" font-family="Arial" font-size="14" text-anchor="middle" fill="white">1</text>
  <text x="200" y="450" font-family="Arial" font-size="14" text-anchor="middle" fill="white">2</text>
  <text x="235" y="450" font-family="Arial" font-size="14" text-anchor="middle" fill="white">3</text>
  <text x="270" y="450" font-family="Arial" font-size="14" text-anchor="middle" fill="white">4</text>
  <line x1="80" y1="430" x2="110" y2="460" stroke="#d35400" stroke-width="2"/>
  <line x1="110" y1="430" x2="80" y2="460" stroke="#d35400" stroke-width="2"/>
  <line x1="115" y1="430" x2="145" y2="460" stroke="#d35400" stroke-width="2"/>
  <line x1="145" y1="430" x2="115" y2="460" stroke="#d35400" stroke-width="2"/>
  <text x="60" y="445" font-family="Arial" font-size="10" text-anchor="end" fill="#d35400">범위 밖</text>
  
  <!-- Arrows from arr[1] to arr[2] -->
  <path d="M95 360 L95 430" stroke="#f39c12" stroke-width="1.5" stroke-dasharray="4" marker-end="url(#arrowhead)"/>
  <path d="M130 360 L130 430" stroke="#f39c12" stroke-width="1.5" stroke-dasharray="4" marker-end="url(#arrowhead)"/>
  <path d="M165 360 L165 430" stroke="#f39c12" stroke-width="1.5" stroke-dasharray="4" marker-end="url(#arrowhead)"/>
  <path d="M200 360 L200 430" stroke="#f39c12" stroke-width="1.5" stroke-dasharray="4" marker-end="url(#arrowhead)"/>
  <path d="M235 360 L235 430" stroke="#f39c12" stroke-width="1.5" stroke-dasharray="4" marker-end="url(#arrowhead)"/>
  
  <!-- arr[3] - After applying differences[2] = 4 -->
  <rect x="50" y="480" width="250" height="90" fill="#eaeded" rx="8" ry="8" stroke="#7f8c8d" stroke-width="2"/>
  <text x="175" y="500" font-family="Arial" font-size="16" text-anchor="middle" font-weight="bold" fill="#7f8c8d">arr[3]: differences[2] = 4 적용</text>
  <text x="175" y="520" font-family="Arial" font-size="14" text-anchor="middle" fill="#444444">arr[2]의 각 값 + 4</text>
  
  <!-- arr[3] values -->
  <rect x="150" y="530" width="30" height="30" fill="#95a5a6" rx="4" ry="4" stroke="#7f8c8d" stroke-width="1"/>
  <rect x="185" y="530" width="30" height="30" fill="#95a5a6" rx="4" ry="4" stroke="#7f8c8d" stroke-width="1"/>
  
  <text x="165" y="550" font-family="Arial" font-size="14" text-anchor="middle" fill="white">5</text>
  <text x="200" y="550" font-family="Arial" font-size="14" text-anchor="middle" fill="white">6</text>
  
  <!-- Arrows from arr[2] to arr[3] -->
  <path d="M165 460 L165 530" stroke="#f39c12" stroke-width="1.5" stroke-dasharray="4" marker-end="url(#arrowhead)"/>
  <path d="M200 460 L200 530" stroke="#f39c12" stroke-width="1.5" stroke-dasharray="4" marker-end="url(#arrowhead)"/>
  
  <!-- Algorithm explanation -->
  <rect x="350" y="180" width="400" height="390" fill="#f5f5f5" rx="8" ry="8" stroke="#95a5a6" stroke-width="2"/>
  <text x="550" y="210" font-family="Arial" font-size="18" text-anchor="middle" font-weight="bold" fill="#333333">알고리즘 설명</text>
  
  <!-- Step 1 -->
  <text x="370" y="240" font-family="Arial" font-size="16" text-anchor="start" font-weight="bold" fill="#16a085">1단계: arr[0] 초기화</text>
  <text x="390" y="260" font-family="Arial" font-size="14" text-anchor="start" fill="#333333">• lower부터 upper까지 모든 값을 포함</text>
  <text x="390" y="280" font-family="Arial" font-size="14" text-anchor="start" fill="#333333">• 코드: arr[0].push_back(val) for val in [lower, upper]</text>
  
  <!-- Step 2 -->
  <text x="370" y="310" font-family="Arial" font-size="16" text-anchor="start" font-weight="bold" fill="#2980b9">2단계: Bottom-Up으로 배열 채우기</text>
  <text x="390" y="330" font-family="Arial" font-size="14" text-anchor="start" fill="#333333">• arr[i]는 arr[i-1]의 값에 differences[i-1]를 적용</text>
  <text x="390" y="350" font-family="Arial" font-size="14" text-anchor="start" fill="#333333">• 코드: for(int i = 1; i &lt;= differences.size(); i++)</text>
  
  <!-- Step 3 -->
  <text x="370" y="380" font-family="Arial" font-size="16" text-anchor="start" font-weight="bold" fill="#d35400">3단계: 각 위치에서 가능한 값 찾기</text>
  <text x="390" y="400" font-family="Arial" font-size="14" text-anchor="start" fill="#333333">• val - prev == differences[i-1] 관계 확인</text>
  <text x="390" y="420" font-family="Arial" font-size="14" text-anchor="start" fill="#333333">• 유효 범위([lower, upper]) 내에 있는지 확인</text>
  
  <!-- Step 4 -->
  <text x="370" y="450" font-family="Arial" font-size="16" text-anchor="start" font-weight="bold" fill="#7f8c8d">4단계: 결과 계산</text>
  <text x="390" y="470" font-family="Arial" font-size="14" text-anchor="start" fill="#333333">• arr[differences.size()]의 크기를 반환</text>
  <text x="390" y="490" font-family="Arial" font-size="14" text-anchor="start" fill="#333333">• 이 값은 가능한 시퀀스의 수를 나타냄</text>
  
  <!-- Result -->
  <text x="370" y="530" font-family="Arial" font-size="18" text-anchor="start" font-weight="bold" fill="#333333">결과: arr[3].size() = 2</text>
  <text x="370" y="550" font-family="Arial" font-size="14" text-anchor="start" fill="#333333">가능한 시퀀스 수 = 2</text>
</svg>