<svg viewBox="0 0 800 500" xmlns="http://www.w3.org/2000/svg">
  <!-- 배경 -->
  <rect width="800" height="500" fill="#f8f9fa" />
  
  <!-- 제목 -->
  <text x="400" y="40" font-family="Arial" font-size="24" text-anchor="middle" font-weight="bold">메모리 사용량 비교: 스택 vs 힙 방식</text>
  
  <!-- 메모리 차트 배경 -->
  <rect x="100" y="80" width="600" height="300" fill="#ffffff" stroke="#cccccc" stroke-width="1" />
  
  <!-- Y축 -->
  <line x1="100" y1="80" x2="100" y2="380" stroke="#666666" stroke-width="2" />
  <!-- X축 -->
  <line x1="100" y1="380" x2="700" y2="380" stroke="#666666" stroke-width="2" />
  
  <!-- Y축 레이블 -->
  <text x="60" y="230" font-family="Arial" font-size="16" text-anchor="middle" transform="rotate(-90, 60, 230)">메모리 사용량 (MB)</text>
  
  <!-- X축 레이블들 -->
  <text x="200" y="410" font-family="Arial" font-size="14" text-anchor="middle">스택 기반</text>
  <text x="400" y="410" font-family="Arial" font-size="14" text-anchor="middle">힙 + delete[] 사용</text>
  <text x="600" y="410" font-family="Arial" font-size="14" text-anchor="middle">힙 + delete[] 미사용</text>
  
  <!-- Y축 눈금 -->
  <line x1="95" y1="380" x2="105" y2="380" stroke="#666666" stroke-width="2" />
  <text x="85" y="385" font-family="Arial" font-size="12" text-anchor="end">7.0</text>
  
  <line x1="95" y1="330" x2="105" y2="330" stroke="#666666" stroke-width="2" />
  <text x="85" y="335" font-family="Arial" font-size="12" text-anchor="end">7.5</text>
  
  <line x1="95" y1="280" x2="105" y2="280" stroke="#666666" stroke-width="2" />
  <text x="85" y="285" font-family="Arial" font-size="12" text-anchor="end">8.0</text>
  
  <line x1="95" y1="230" x2="105" y2="230" stroke="#666666" stroke-width="2" />
  <text x="85" y="235" font-family="Arial" font-size="12" text-anchor="end">8.5</text>
  
  <!-- 막대 그래프 그리기 -->
  <!-- 스택 기반 (7.5MB) -->
  <rect x="150" y="330" width="100" height="50" fill="#4285f4" opacity="0.8" />
  <text x="200" y="325" font-family="Arial" font-size="14" text-anchor="middle" font-weight="bold">7.5MB</text>
  
  <!-- 힙 + delete[] (7.94MB) -->
  <rect x="350" y="306" width="100" height="74" fill="#db4437" opacity="0.8" />
  <text x="400" y="301" font-family="Arial" font-size="14" text-anchor="middle" font-weight="bold">7.94MB</text>
  
  <!-- 힙 + delete[] 미사용 (8.1MB) -->
  <rect x="550" y="297" width="100" height="83" fill="#f4b400" opacity="0.8" />
  <text x="600" y="292" font-family="Arial" font-size="14" text-anchor="middle" font-weight="bold">8.1MB</text>
  
  <!-- 상세 구조 설명 -->
  <!-- 스택 메모리 구조 -->
  <rect x="120" y="440" width="160" height="20" fill="#4285f4" opacity="0.8" />
  <text x="200" y="455" font-family="Arial" font-size="12" text-anchor="middle">순수 데이터 (7.5MB)</text>
  
  <!-- 힙 + delete[] 메모리 구조 -->
  <rect x="320" y="440" width="120" height="20" fill="#4285f4" opacity="0.8" />
  <rect x="440" y="440" width="40" height="20" fill="#db4437" opacity="0.8" />
  <text x="400" y="455" font-family="Arial" font-size="12" text-anchor="middle">순수 데이터</text>
  <text x="460" y="455" font-family="Arial" font-size="12" text-anchor="middle">오버헤드</text>
  <text x="400" y="475" font-family="Arial" font-size="12" text-anchor="middle">(7.5MB + 0.44MB)</text>
  
  <!-- 힙 + delete[] 미사용 메모리 구조 -->
  <rect x="520" y="440" width="120" height="20" fill="#4285f4" opacity="0.8" />
  <rect x="640" y="440" width="40" height="20" fill="#db4437" opacity="0.8" />
  <rect x="680" y="440" width="20" height="20" fill="#f4b400" opacity="0.8" />
  <text x="600" y="475" font-family="Arial" font-size="12" text-anchor="middle">(7.5MB + 0.44MB + 0.16MB)</text>
  <text x="680" y="455" font-family="Arial" font-size="10" text-anchor="middle">누수</text>
  
  <!-- 메모리 구조 상세 -->
  <!-- 스택 메모리 -->
  <g transform="translate(140, 120)">
    <rect width="120" height="80" fill="#ffffff" stroke="#4285f4" stroke-width="2" />
    <text x="60" y="-10" font-family="Arial" font-size="12" text-anchor="middle" font-weight="bold">스택 메모리</text>
    <rect x="10" y="10" width="100" height="25" fill="#a5c8ff" />
    <text x="60" y="27" font-family="Arial" font-size="12" text-anchor="middle">prev = 1</text>
    <rect x="10" y="45" width="100" height="25" fill="#a5c8ff" />
    <text x="60" y="62" font-family="Arial" font-size="12" text-anchor="middle">curr = 1</text>
  </g>
  
  <!-- 힙 + delete[] 메모리 -->
  <g transform="translate(340, 120)">
    <rect width="120" height="120" fill="#ffffff" stroke="#db4437" stroke-width="2" />
    <text x="60" y="-10" font-family="Arial" font-size="12" text-anchor="middle" font-weight="bold">힙 메모리 (delete[] 사용)</text>
    <rect x="10" y="10" width="100" height="20" fill="#ffad9f" />
    <text x="60" y="24" font-family="Arial" font-size="10" text-anchor="middle">메모리 메타데이터</text>
    <rect x="10" y="40" width="100" height="20" fill="#ffad9f" />
    <text x="60" y="54" font-family="Arial" font-size="10" text-anchor="middle">블록 헤더</text>
    <rect x="10" y="70" width="40" height="20" fill="#a5c8ff" />
    <text x="30" y="84" font-family="Arial" font-size="10" text-anchor="middle">dp[0]=1</text>
    <rect x="60" y="70" width="40" height="20" fill="#a5c8ff" />
    <text x="80" y="84" font-family="Arial" font-size="10" text-anchor="middle">dp[1]=1</text>
    <rect x="10" y="100" width="100" height="10" fill="#ffad9f" />
    <text x="60" y="108" font-family="Arial" font-size="8" text-anchor="middle">패딩 (정렬용)</text>
  </g>
  
  <!-- 힙 + delete[] 미사용 메모리 -->
  <g transform="translate(540, 120)">
    <rect width="120" height="150" fill="#ffffff" stroke="#f4b400" stroke-width="2" />
    <text x="60" y="-10" font-family="Arial" font-size="12" text-anchor="middle" font-weight="bold">힙 메모리 (delete[] 미사용)</text>
    <rect x="10" y="10" width="100" height="20" fill="#ffad9f" />
    <text x="60" y="24" font-family="Arial" font-size="10" text-anchor="middle">메모리 메타데이터</text>
    <rect x="10" y="40" width="100" height="20" fill="#ffad9f" />
    <text x="60" y="54" font-family="Arial" font-size="10" text-anchor="middle">블록 헤더</text>
    <rect x="10" y="70" width="40" height="20" fill="#a5c8ff" />
    <text x="30" y="84" font-family="Arial" font-size="10" text-anchor="middle">dp[0]=1</text>
    <rect x="60" y="70" width="40" height="20" fill="#a5c8ff" />
    <text x="80" y="84" font-family="Arial" font-size="10" text-anchor="middle">dp[1]=1</text>
    <rect x="10" y="100" width="100" height="10" fill="#ffad9f" />
    <text x="60" y="108" font-family="Arial" font-size="8" text-anchor="middle">패딩 (정렬용)</text>
    <rect x="10" y="120" width="100" height="20" fill="#ffe0b2" />
    <text x="60" y="134" font-family="Arial" font-size="10" text-anchor="middle">미해제 메모리</text>
  </g>
</svg>
